<svg xmlns="http://www.w3.org/2000/svg" width="682.667" height="682.667" version="1.0" viewBox="0 0 512 512">
  <path d="M221 30.6c-83 9-154.8 48.7-192.7 106.6-33.1 50.4-37.1 109.1-11.1 161.3C51.7 367.8 129.8 415.3 225 425c15.3 1.6 45.2 1.6 62.6 0l14.1-1.3 8.4 6.5c35.6 27.5 67.8 44.9 107.4 58 14.8 4.9 31.5 9 36.9 9 8.2.2 14.6-5.8 14.6-13.5 0-4.8-.5-5.7-9.7-17.5-15.8-20.1-30.7-45.6-40.8-69.6-2.5-5.9-4.5-11.2-4.5-11.6 0-.4 3.8-3.3 8.4-6.4 18-12 36.7-28.8 49.1-44.1 43.6-53.9 52.3-117.4 24-176.3C462.2 88.9 384.1 40.4 289.6 30.5c-17.7-1.8-51.2-1.8-68.6.1zm57.5 70.8c32.4 5.8 63.9 26 82.3 52.8 18.6 27.2 26.8 62.8 21.6 93.9-1.8 10.9-6.9 27-11.5 36.1-8.3 16.7-23.3 34.6-38.1 45.8-11.9 9-33.1 18.9-47.3 22-9.1 2.1-23.7 4-30 4-7.2 0-23.4-2.3-31.9-4.5-10-2.6-25.7-9.2-34.6-14.6-10-6-12-7.6-22.3-17.7-25.5-24.9-38.7-56.7-38.7-93.2 0-25.8 7.7-50.3 22.8-72 6.4-9.2 24.3-26.6 33.7-32.8 28.4-18.7 61.3-25.6 94-19.8z"/>
  <path d="M238.7 159.1c-19.6 4.8-37.1 18.8-46 36.9-5.1 10.5-7.7 21.1-7.7 31.5 0 33 25.2 63.7 57.1 69.5 42.1 7.7 81.2-22.1 84.6-64.5.3-4.4-.1-10.5-1.1-16.5-4.8-27.8-25.8-50.5-52.7-57-10.7-2.5-23.7-2.5-34.2.1z"/>
</svg>
